# xmcd
#
# Track frame offsets:
#	150
#	9672
#	25432
#	42882
#	61467
#	76760
#	87015
#	109485
#	121837
#	141212
#	151832
#	166555
#	180202
#	188397
#	201342
#	215682
#	227650
#	240892
#
# Disc length: 3415 seconds
# Revision: 0
# Processed by: cddbd v1.5.2PL0 Copyright (c) Steve Scherf et al.
# Submitted via: dBpowerAMP V12.0
#
DISCID=d70d5512
DTITLE=Various Artist - Country Christmas [Collectables]
DYEAR=1996
DGENRE=Country
TTITLE0=Brenda Lee - Rockin' Around the Christmas Tree
TTITLE1=Elmo and Patsy - Grandma Got Run Over by a Reindeer
TTITLE2=Dolly Parton - Hard Candy Christmas
TTITLE3=Alabama - Thistlehair the Christmas Bear
TTITLE4=Alan Jackson - I Only Want You for Christmas
TTITLE5=Burl Ives - A Holly Jolly Christmas
TTITLE6=Ricky Skaggs - O Come All Ye Faithful
TTITLE7=Mark Chesnutt - What Child Is This?
TTITLE8=Oak Ridge Boys, The - There's a New Kid in Town (Intro- Away in the Manger)
TTITLE9=Tanya Tucker - Silver Bells
TTITLE10=Tracy Byrd - Christmas Like Mama Used to Make
TTITLE11=Ronnie Milsap - It's Christmas
TTITLE12=Chet Atkins - Jingle Bell Rock
TTITLE13=George Jones - O Little Town of Bethlehem
TTITLE14=Larry Gatlin - Silent Night
TTITLE15=Barbara Mandrell - Winter Wonderland
TTITLE16=Steve Wariner - The Most Wonderful Time of the Year
TTITLE17=Lee Greenwood - Let It Snow! Let It Snow! Let It Snow!
EXTD=
EXTT0=
EXTT1=
EXTT2=
EXTT3=
EXTT4=
EXTT5=
EXTT6=
EXTT7=
EXTT8=
EXTT9=
EXTT10=
EXTT11=
EXTT12=
EXTT13=
EXTT14=
EXTT15=
EXTT16=
EXTT17=
PLAYORDER=
